<svg xmlns="http://www.w3.org/2000/svg" width="1200" height="1200" viewBox="0 0 1200 1200"><defs><linearGradient id="a" x1="0%" x2="100%" y1="0%" y2="100%"><stop offset="0%" stop-color="hsl(220, 25%, 3%)"/><stop offset="100%" stop-color="hsl(220, 25%, 6%)"/></linearGradient><linearGradient id="d" x1="0%" x2="100%" y1="0%" y2="100%"><stop offset="0%" stop-color="hsl(280, 95%, 70%)" stop-opacity=".8"/><stop offset="50%" stop-color="hsl(320, 90%, 65%)" stop-opacity=".8"/><stop offset="100%" stop-color="hsl(180, 100%, 75%)" stop-opacity=".8"/></linearGradient><linearGradient id="c" x1="0%" x2="100%" y1="0%" y2="100%"><stop offset="0%" stop-color="hsl(280, 95%, 70%)" stop-opacity=".3"/><stop offset="100%" stop-color="hsl(180, 100%, 75%)" stop-opacity=".3"/></linearGradient><pattern id="b" width="50" height="50" patternUnits="userSpaceOnUse"><path fill="none" stroke="hsl(280, 95%, 70%)" stroke-width=".5" d="M50 0H0v50" opacity=".2"/></pattern><filter id="e"><feGaussianBlur result="coloredBlur" stdDeviation="8"/><feMerge><feMergeNode in="coloredBlur"/><feMergeNode in="SourceGraphic"/></feMerge></filter></defs><path fill="url(#a)" d="M0 0h1200v1200H0z"/><path fill="url(#b)" d="M0 0h1200v1200H0z"/><circle cx="300" cy="300" r="400" fill="url(#c)" opacity=".3"/><circle cx="900" cy="900" r="400" fill="url(#c)" opacity=".3"/><rect width="1000" height="1000" x="100" y="100" fill="none" stroke="url(#d)" stroke-width="4" filter="url(#e)" opacity=".6" rx="16"/><g filter="url(#e)" transform="translate(600 600)"><g fill="none" stroke="url(#d)" stroke-linecap="round" stroke-width="24"><path d="M-150 200v-300"/><path d="M-150-100 0 50"/><path d="m0 50 150-150"/><path d="M150-100v300"/><path stroke="hsl(180, 100%, 75%)" stroke-width="18" d="M0 50v150" opacity=".9"/></g><circle cx="-150" cy="-100" r="12" fill="hsl(280, 95%, 70%)"/><circle cx="150" cy="-100" r="12" fill="hsl(320, 90%, 65%)"/><circle cy="50" r="12" fill="hsl(180, 100%, 75%)"/></g><text x="600" y="950" fill="hsl(220, 10%, 70%)" font-family="sans-serif" font-size="32" font-weight="600" opacity=".7" text-anchor="middle">
    Monynha Online
  </text><path fill="none" stroke="url(#d)" stroke-linecap="round" stroke-width="3" d="M100 150v-50h50" opacity=".6"/><path fill="none" stroke="url(#d)" stroke-linecap="round" stroke-width="3" d="M1050 100h50v50" opacity=".6"/><path fill="none" stroke="url(#d)" stroke-linecap="round" stroke-width="3" d="M1100 1050v50h-50" opacity=".6"/><path fill="none" stroke="url(#d)" stroke-linecap="round" stroke-width="3" d="M150 1100h-50v-50" opacity=".6"/></svg>